<svg width="60" height="96" viewBox="0 0 60 96" fill="none" xmlns="http://www.w3.org/2000/svg">
<path d="M0.636353 95.1818V87L31.3636 53.3636C34.9697 49.4242 37.9394 46 40.2727 43.0909C42.606 40.1515 44.3333 37.3939 45.4545 34.8182C46.6061 32.2121 47.1818 29.4848 47.1818 26.6364C47.1818 23.3636 46.3939 20.5303 44.8182 18.1364C43.2727 15.7424 41.1515 13.8939 38.4545 12.5909C35.7576 11.2879 32.7273 10.6364 29.3636 10.6364C25.7879 10.6364 22.6667 11.3788 20 12.8636C17.3636 14.3182 15.3182 16.3636 13.8636 19C12.4394 21.6364 11.7273 24.7273 11.7273 28.2727H0.999989C0.999989 22.8182 2.25756 18.0303 4.77272 13.9091C7.28787 9.78787 10.7121 6.57575 15.0454 4.27272C19.4091 1.96969 24.303 0.818176 29.7273 0.818176C35.1818 0.818176 40.0151 1.96969 44.2273 4.27272C48.4394 6.57575 51.7424 9.68181 54.1364 13.5909C56.5303 17.5 57.7273 21.8485 57.7273 26.6364C57.7273 30.0606 57.106 33.4091 55.8636 36.6818C54.6515 39.9242 52.5303 43.5454 49.5 47.5454C46.5 51.5151 42.3333 56.3636 37 62.0909L16.0909 84.4545V85.1818H59.3636V95.1818H0.636353Z" fill="white"/>
</svg>
